<svg width="30" height="30" viewBox="0 0 30 30" fill="none" xmlns="http://www.w3.org/2000/svg">
<path d="M14.9923 30H15.0065C23.2871 30 29.9988 23.2871 29.9988 15.0077V15.0006C30 6.71527 23.2847 0 15.0006 0C6.71527 0 0 6.71527 0 14.9994V15.0065C0 23.2871 6.71291 30 14.9923 30Z" fill="white"/>
<path d="M15.0007 8.69442C17.0543 8.69442 17.2979 8.70269 18.1089 8.73934C18.8585 8.77363 19.2664 8.89895 19.5371 9.00417C19.8965 9.14368 20.1519 9.31038 20.4214 9.57993C20.691 9.84949 20.8577 10.1049 20.9972 10.4643C21.1024 10.735 21.2277 11.1429 21.262 11.8924C21.2987 12.7035 21.307 12.947 21.307 15.0006C21.307 17.0542 21.2987 17.2978 21.262 18.1088C21.2277 18.8584 21.1024 19.2662 20.9972 19.537C20.8577 19.8964 20.691 20.1518 20.4214 20.4213C20.1519 20.6909 19.8965 20.8576 19.5371 20.9971C19.2664 21.1023 18.8585 21.2276 18.1089 21.2619C17.2979 21.2986 17.0543 21.3068 15.0007 21.3068C12.9471 21.3068 12.7036 21.2986 11.8926 21.2619C11.143 21.2276 10.7351 21.1023 10.4644 20.9971C10.105 20.8576 9.84961 20.6909 9.58005 20.4213C9.31049 20.1518 9.14379 19.8964 9.00429 19.537C8.89906 19.2662 8.77374 18.8584 8.73946 18.1088C8.70281 17.2978 8.69453 17.0542 8.69453 15.0006C8.69453 12.947 8.70281 12.7035 8.73946 11.8924C8.77374 11.1429 8.89906 10.735 9.00429 10.4643C9.14379 10.1049 9.31049 9.84949 9.58005 9.57993C9.84961 9.31038 10.105 9.14368 10.4644 9.00417C10.7351 8.89895 11.143 8.77363 11.8926 8.73934C12.7036 8.70151 12.946 8.69442 15.0007 8.69442ZM15.0007 7.30762C12.9117 7.30762 12.6492 7.31589 11.8299 7.35373C11.0106 7.39156 10.4526 7.52161 9.9631 7.71077C9.45709 7.90703 9.02793 8.17067 8.60113 8.59747C8.17315 9.02545 7.91069 9.45461 7.71443 9.95944C7.52409 10.4489 7.39404 11.0081 7.35739 11.8262C7.31956 12.6467 7.31128 12.908 7.31128 14.9971C7.31128 17.0861 7.31956 17.3486 7.35739 18.1679C7.39522 18.9872 7.52527 19.5453 7.71443 20.0347C7.91069 20.5407 8.17433 20.9699 8.60113 21.3967C9.02911 21.8247 9.45827 22.0871 9.9631 22.2834C10.4526 22.4737 11.0118 22.6038 11.8299 22.6404C12.6504 22.6783 12.9117 22.6865 15.0007 22.6865C17.0898 22.6865 17.3523 22.6783 18.1716 22.6404C18.9909 22.6026 19.5489 22.4726 20.0384 22.2834C20.5444 22.0871 20.9736 21.8235 21.4003 21.3967C21.8283 20.9687 22.0908 20.5395 22.287 20.0347C22.4774 19.5453 22.6074 18.986 22.6441 18.1679C22.6819 17.3474 22.6902 17.0861 22.6902 14.9971C22.6902 12.908 22.6819 12.6456 22.6441 11.8262C22.6063 11.0069 22.4762 10.4489 22.287 9.95944C22.0908 9.45343 21.8271 9.02427 21.4003 8.59747C20.9724 8.16949 20.5432 7.90703 20.0384 7.71077C19.5489 7.52043 18.9897 7.39038 18.1716 7.35373C17.3511 7.31708 17.0886 7.30762 15.0007 7.30762Z" fill="black"/>
<path d="M15.0007 11.0505C12.8195 11.0505 11.0508 12.8192 11.0508 15.0005C11.0508 17.1818 12.8195 18.9504 15.0007 18.9504C17.182 18.9504 18.9507 17.1818 18.9507 15.0005C18.9507 12.8192 17.182 11.0505 15.0007 11.0505ZM15.0007 17.5636C13.5844 17.5636 12.4364 16.4157 12.4364 14.9993C12.4364 13.583 13.5844 12.435 15.0007 12.435C16.4171 12.435 17.5651 13.583 17.5651 14.9993C17.5651 16.4157 16.4159 17.5636 15.0007 17.5636Z" fill="black"/>
<path d="M19.1055 11.818C19.6154 11.818 20.0288 11.4046 20.0288 10.8947C20.0288 10.3847 19.6154 9.97131 19.1055 9.97131C18.5955 9.97131 18.1821 10.3847 18.1821 10.8947C18.1821 11.4046 18.5955 11.818 19.1055 11.818Z" fill="black"/>
</svg>
