<svg width="31" height="30" viewBox="0 0 31 30" fill="none" xmlns="http://www.w3.org/2000/svg">
<path d="M15.8627 0C7.57733 0 0.862061 6.71686 0.862061 15.003C0.862061 23.2855 7.57497 29.9988 15.8544 29.9988H15.8686C24.1492 29.9988 30.8609 23.2843 30.8609 15.003C30.8621 6.71686 24.1468 0 15.8627 0Z" fill="white"/>
<path d="M22.1345 8.85847L7.88707 14.2544C7.10795 14.4791 7.13278 15.249 7.70854 15.4346L11.2778 16.5486L12.6433 20.7371C12.8088 21.196 12.9448 21.3686 13.2285 21.3722C13.5265 21.3757 13.6412 21.2669 13.9497 20.9938C14.3127 20.6532 14.8636 20.1175 15.7361 19.2696L19.4496 22.0143C20.133 22.3915 20.626 22.1964 20.7962 21.3793L23.1241 9.86127C23.3759 8.85966 22.7883 8.56166 22.1345 8.85847ZM11.8394 16.2931L19.9556 11.1999C20.3552 10.9315 20.4806 11.2307 20.3009 11.4376L13.5655 17.4982L13.2203 20.5231L11.8394 16.2931Z" fill="black"/>
</svg>
