<svg width="59" height="59" viewBox="0 0 59 59" fill="none" xmlns="http://www.w3.org/2000/svg">
<circle cx="29.5" cy="29.5" r="28.5" stroke="#323232" stroke-width="2"/>
<path d="M36.6085 14H22.3914C17.7643 14 14 17.7643 14 22.3914V36.6088C14 41.2356 17.7643 44.9999 22.3914 44.9999H36.6088C41.2356 44.9999 44.9999 41.2356 44.9999 36.6088V22.3914C44.9999 17.7643 41.2356 14 36.6085 14V14ZM29.5 37.9763C24.826 37.9763 21.0237 34.1739 21.0237 29.5C21.0237 24.826 24.826 21.0237 29.5 21.0237C34.1739 21.0237 37.9763 24.826 37.9763 29.5C37.9763 34.1739 34.1739 37.9763 29.5 37.9763ZM38.179 23.0226C36.7977 23.0226 35.6743 21.8992 35.6743 20.518C35.6743 19.1368 36.7977 18.0131 38.179 18.0131C39.5602 18.0131 40.6839 19.1368 40.6839 20.518C40.6839 21.8992 39.5602 23.0226 38.179 23.0226Z" fill="#858585"/>
<path d="M29.4998 22.8411C25.8282 22.8411 22.8408 25.8282 22.8408 29.5C22.8408 33.1716 25.8282 36.159 29.4998 36.159C33.1716 36.159 36.1587 33.1716 36.1587 29.5C36.1587 25.8282 33.1716 22.8411 29.4998 22.8411Z" fill="#858585"/>
<path d="M38.1785 19.8307C37.7996 19.8307 37.4912 20.1391 37.4912 20.518C37.4912 20.8969 37.7996 21.2053 38.1785 21.2053C38.5576 21.2053 38.866 20.8971 38.866 20.518C38.866 20.1389 38.5576 19.8307 38.1785 19.8307Z" fill="#858585"/>
</svg>
