<svg width="29" height="29" viewBox="0 0 29 29" fill="none" xmlns="http://www.w3.org/2000/svg">
<g clip-path="url(#clip0_63_1250)">
<path d="M12.771 0C5.72926 0 0 5.72926 0 12.771C0 19.8131 5.72926 25.542 12.771 25.542C19.8131 25.542 25.542 19.8131 25.542 12.771C25.542 5.72926 19.8131 0 12.771 0ZM12.771 23.1843C7.02916 23.1843 2.35772 18.5129 2.35772 12.771C2.35772 7.02922 7.02916 2.35772 12.771 2.35772C18.5128 2.35772 23.1843 7.02916 23.1843 12.771C23.1843 18.5128 18.5128 23.1843 12.771 23.1843Z" fill="white"/>
<path d="M28.655 26.9877L21.8961 20.2288C21.4356 19.7683 20.6897 19.7683 20.2292 20.2288C19.7687 20.689 19.7687 21.4356 20.2292 21.8958L26.988 28.6546C27.2183 28.8848 27.5197 29 27.8215 29C28.1229 29 28.4247 28.8848 28.655 28.6546C29.1155 28.1944 29.1155 27.4478 28.655 26.9877Z" fill="white"/>
</g>
<defs>
<clipPath id="clip0_63_1250">
<rect width="29" height="29" fill="white"/>
</clipPath>
</defs>
</svg>
